<svg width="30" height="31" viewBox="0 0 30 31" fill="none" xmlns="http://www.w3.org/2000/svg">
<g clip-path="url(#clip0_213_439)">
<path d="M15.9994 1.00355L25.8431 4.15355C26.5057 4.36541 27.0838 4.78234 27.4939 5.34415C27.9041 5.90596 28.1251 6.58358 28.125 7.27917V13.8792C28.125 16.8154 27.525 19.8454 25.6819 22.6579C23.8387 25.4667 20.835 27.9323 16.2469 29.8861C15.8525 30.0537 15.4285 30.14 15 30.14C14.5715 30.14 14.1475 30.0537 13.7531 29.8861C9.165 27.9323 6.16125 25.4667 4.31813 22.6579C2.475 19.8454 1.875 16.8154 1.875 13.8792V7.27917C1.87494 6.58358 2.09594 5.90596 2.5061 5.34415C2.91625 4.78234 3.49433 4.36541 4.15688 4.15355L14.0006 1.00355C14.6507 0.795692 15.3493 0.795692 15.9994 1.00355ZM14.8556 3.68292L5.01188 6.83293C4.91752 6.86303 4.83513 6.92225 4.77652 7.00208C4.71791 7.08192 4.68609 7.17826 4.68563 7.2773V13.8792C4.68563 16.4292 5.20125 18.8779 6.6675 21.1148C8.1375 23.3536 10.6444 25.5061 14.8538 27.2985C14.8995 27.3176 14.9486 27.3275 14.9981 27.3275C15.0477 27.3275 15.0968 27.3176 15.1425 27.2985C19.3519 25.5042 21.8588 23.3554 23.3288 21.1167C24.7987 18.8779 25.3125 16.4254 25.3125 13.8792V7.27917C25.3124 7.17982 25.2808 7.08305 25.2222 7.00284C25.1635 6.92263 25.0809 6.86313 24.9862 6.83293L15.1425 3.68292C15.0492 3.65294 14.9489 3.65294 14.8556 3.68292ZM21.15 12.5292L14.5875 19.0917C14.3238 19.355 13.9664 19.5029 13.5938 19.5029C13.2211 19.5029 12.8637 19.355 12.6 19.0917L9.7875 16.2792C9.60239 16.1073 9.46707 15.8887 9.39579 15.6463C9.32452 15.404 9.31992 15.1469 9.3825 14.9022C9.44507 14.6574 9.5725 14.4341 9.75135 14.2557C9.9302 14.0773 10.1539 13.9505 10.3988 13.8885C10.6432 13.8261 10.9 13.8306 11.1421 13.9015C11.3843 13.9724 11.6029 14.1072 11.775 14.2917L13.5938 16.1104L19.1625 10.5417C19.429 10.293 19.7817 10.1575 20.1462 10.1638C20.5107 10.1701 20.8585 10.3177 21.1163 10.5754C21.374 10.8332 21.5216 11.181 21.5279 11.5455C21.5342 11.91 21.3987 12.2627 21.15 12.5292Z" fill="white"/>
</g>
<defs>
<clipPath id="clip0_213_439">
<rect width="30" height="30" fill="white" transform="translate(0 0.75415)"/>
</clipPath>
</defs>
</svg>
