<svg width="46" height="46" viewBox="0 0 46 46" fill="none" xmlns="http://www.w3.org/2000/svg">
<path d="M44.0269 24.0188L39.6171 4.11081C39.455 3.38296 39.0108 2.74913 38.3819 2.34837C37.7531 1.94761 36.9909 1.81263 36.2627 1.97305L16.3549 6.38287C15.9942 6.46275 15.6529 6.61288 15.3503 6.82469C15.0477 7.0365 14.7897 7.30584 14.5912 7.61733C14.3927 7.92882 14.2575 8.27637 14.1934 8.64011C14.1292 9.00386 14.1373 9.37669 14.2172 9.73731L16.0647 18.0781H4.71875C3.97309 18.079 3.2582 18.3755 2.73094 18.9028C2.20367 19.4301 1.90709 20.145 1.90625 20.8906V41.2812C1.90709 42.0269 2.20367 42.7418 2.73094 43.2691C3.2582 43.7963 3.97309 44.0929 4.71875 44.0938H25.1094C25.855 44.0929 26.5699 43.7963 27.0972 43.2691C27.6244 42.7418 27.921 42.0269 27.9219 41.2812V30.4669L41.8892 27.3732C42.617 27.211 43.2508 26.7668 43.6516 26.138C44.0524 25.5092 44.1873 24.7471 44.0269 24.0188ZM25.1094 41.2812H4.71875V20.8906H16.6878L18.6269 29.6451C18.7654 30.2692 19.1122 30.8276 19.6103 31.2285C20.1083 31.6293 20.728 31.8486 21.3673 31.8504C21.5738 31.8503 21.7796 31.8276 21.9812 31.7828L25.1101 31.0897L25.1111 41.2812H25.1094ZM41.2812 24.6271L21.3729 29.0369L16.9631 9.12875L36.8712 4.71875L41.2827 24.6264L41.2812 24.6271Z" fill="#FFF065"/>
<path d="M7.53125 23.7031H11.0469V27.2187H7.53125V23.7031ZM7.53125 34.9531H11.0469V38.4687H7.53125V34.9531ZM18.7812 34.9531H22.2969V38.4687H18.7812V34.9531ZM13.1562 29.3281H16.6719V32.8437H13.1562V29.3281ZM20.3155 11.2725L23.7479 10.5128L24.5077 13.9453L21.0752 14.7051L20.3155 11.2725ZM33.7339 19.8175L37.1664 19.0572L37.9266 22.4897L34.4942 23.25L33.7339 19.8175ZM27.0257 15.5417L30.4581 14.7814L31.2184 18.2138L27.7861 18.9741L27.0257 15.5417Z" fill="#FFF065"/>
</svg>
